HIERARCHY
ROOT root
{
	OFFSET	0	13.1	24.9
	CHANNELS 6  Xposition Yposition Zposition Xrotation Yrotation Zrotation
	JOINT spine_1
	{
		OFFSET	0	9.99999	0
		CHANNELS 3  Xrotation Yrotation Zrotation
		JOINT spine_2
		{
			OFFSET	0	112	-10
			CHANNELS 3  Xrotation Yrotation Zrotation
			JOINT spine_3
			{
				OFFSET	0	206.5	19.3
				CHANNELS 3  Xrotation Yrotation Zrotation
				JOINT spine_4
				{
					OFFSET	0	110.4	14.6
					CHANNELS 3  Xrotation Yrotation Zrotation
					JOINT neck_1
					{
						OFFSET	0	71.8	-50.3
						CHANNELS 3  Xrotation Yrotation Zrotation
						JOINT neck_2
						{
							OFFSET	0	86.2	-25.8
							CHANNELS 3  Xrotation Yrotation Zrotation
							JOINT head_ee
							{
								OFFSET	0	179.8	-8.7
								CHANNELS 3  Xrotation Yrotation Zrotation
								End Site
								{
									OFFSET	1	0	0
								}
							}
						}
					}
					JOINT left_clavicle
					{
						OFFSET	-43.2	22.4	-70.8
						CHANNELS 3  Xrotation Yrotation Zrotation
						JOINT left_shoulder
						{
							OFFSET	-93.9	-5.79999	48.7
							CHANNELS 3  Xrotation Yrotation Zrotation
							JOINT left_elbow
							{
								OFFSET	-291.4	-30.8	15.2
								CHANNELS 3  Xrotation Yrotation Zrotation
								JOINT left_lowarm_twist
								{
									OFFSET	-110.7	-3.89999	13.6
									CHANNELS 3  Xrotation Yrotation Zrotation
									JOINT left_hand
									{
										OFFSET	-110.7	-3.89999	13.6
										CHANNELS 3  Xrotation Yrotation Zrotation
										JOINT left_ee
										{
											OFFSET	-80.8	-5.10001	12.1
											CHANNELS 3  Xrotation Yrotation Zrotation
											End Site
											{
												OFFSET	1	0	0
											}
										}
									}
								}
							}
						}
					}
					JOINT right_clavicle
					{
						OFFSET	43.2	22.4	-70.8
						CHANNELS 3  Xrotation Yrotation Zrotation
						JOINT right_shoulder
						{
							OFFSET	93.9	-5.79999	48.7
							CHANNELS 3  Xrotation Yrotation Zrotation
							JOINT right_elbow
							{
								OFFSET	291.4	-30.8	15.2
								CHANNELS 3  Xrotation Yrotation Zrotation
								JOINT right_lowarm_twist
								{
									OFFSET	110.7	-3.89999	13.6
									CHANNELS 3  Xrotation Yrotation Zrotation
									JOINT right_hand
									{
										OFFSET	110.7	-3.89999	13.6
										CHANNELS 3  Xrotation Yrotation Zrotation
										JOINT right_ee
										{
											OFFSET	80.8	-5.10001	12.1
											CHANNELS 3  Xrotation Yrotation Zrotation
											End Site
											{
												OFFSET	1	0	0
											}
										}
									}
								}
							}
						}
					}
				}
			}
		}
	}
	JOINT left_hip
	{
		OFFSET	-82.8	-127.5	0.300001
		CHANNELS 3  Xrotation Yrotation Zrotation
		JOINT left_knee
		{
			OFFSET	-28.2	-396.7	2.2
			CHANNELS 3  Xrotation Yrotation Zrotation
			JOINT left_ankle
			{
				OFFSET	-11.7	-411.3	35.4
				CHANNELS 3  Xrotation Yrotation Zrotation
				JOINT left_toes
				{
					OFFSET	0	-60	-88.6
					CHANNELS 3  Xrotation Yrotation Zrotation
					JOINT left_foot_ee
					{
						OFFSET	-22.5	-16.5	-42.2
						CHANNELS 3  Xrotation Yrotation Zrotation
						End Site
						{
							OFFSET	1	0	0
						}
					}
				}
			}
		}
	}
	JOINT right_hip
	{
		OFFSET	82.8	-127.5	0.300001
		CHANNELS 3  Xrotation Yrotation Zrotation
		JOINT right_knee
		{
			OFFSET	28.2	-396.7	2.2
			CHANNELS 3  Xrotation Yrotation Zrotation
			JOINT right_ankle
			{
				OFFSET	11.7	-411.3	35.4
				CHANNELS 3  Xrotation Yrotation Zrotation
				JOINT right_toes
				{
					OFFSET	0	-60	-88.6
					CHANNELS 3  Xrotation Yrotation Zrotation
					JOINT right_foot_ee
					{
						OFFSET	22.5	-16.5	-42.2
						CHANNELS 3  Xrotation Yrotation Zrotation
						End Site
						{
							OFFSET	1	0	0
						}
					}
				}
			}
		}
	}
}
MOTION
Frames: 13
Frame Time: 0.02
2800.94 716.97 -1473.77 -3.84299536467 54.9387125107 -2.19511797232 1.60721 0.440399 2.75959 1.61141 0.263976 2.782 1.6246 -0.247905 2.78347 1.61384 0.194628 2.7877 -9.13409 15.8692 -2.27062 -9.36258 31.3461 1.65641 -0.0 0.0 -0.0 2.48127 23.9039 6.1328 15.3932 -25.6638 41.1399 9.32826 -77.737 7.52431 -63.8942 -5.77064 5.20581 -4.25409 24.7301 -14.4403 -0.0 0.0 -0.0 12.2019 20.0367 -24.3954 -33.3055 -3.12542 -64.7502 0.612754 16.8853 -0.0909504 -20.7762 1.17513 -2.36794 2.597 -29.9945 -26.5134 0.0 0.0 0.0 -20.9173 2.71175 18.8542 7.07422 -0.355239 -1.02634 36.2043 15.0381 -4.57762 -25.6424 0.0 0.0 -0.0 0.0 -0.0 33.2997 18.4849 -9.50666 2.20655 0.0971341 0.324635 -16.731 16.9924 -2.78749 -39.0823 0.0 0.0 0.0 0.0 0.0 
2639.61923583 715.044 -1504.59488522 -7.22060564977 61.6209689544 1.56370307738 2.4907 0.397713 2.00162 2.49289 0.269565 2.02286 2.5021 -0.0726213 2.03944 2.49638 0.250315 2.02533 1.73956 15.05 -8.42431 3.34358 33.4684 -8.46339 -0.0 0.0 -0.0 0.44788 24.1115 3.38917 -4.14878 -20.8711 47.3636 5.62321 -70.2234 3.95538 -65.8123 -6.01316 5.24506 -1.9044 11.3071 -7.45442 -0.0 0.0 -0.0 12.5382 18.9223 -25.246 -28.2091 -0.225622 -65.9143 0.3476 9.7702 -0.0297089 -22.8175 1.33537 -2.57457 2.67071 -25.9268 -26.1998 0.0 0.0 0.0 -22.1451 -1.56442 16.7878 0.104574 -0.00432039 -0.0154662 25.449 15.1581 -3.42038 -29.9836 0.0 0.0 -0.0 0.0 -0.0 25.0488 19.6133 -6.25655 -3.90388 -0.140933 -0.582434 10.5834 12.803 1.60419 -26.3331 0.0 0.0 0.0 0.0 0.0 
2618.12890381 715.362 -1513.80327752 -8.46034446377 63.0555844544 3.09013518598 2.74042 0.365749 1.79021 2.74217 0.251111 1.80985 2.74973 -0.0472855 1.82657 2.74516 0.241732 1.81112 0.456842 15.7371 -7.30395 1.81691 33.9161 -6.72413 -0.0 0.0 -0.0 -0.132418 23.2525 2.50952 -7.01577 -20.1129 48.6453 4.76923 -67.0351 3.15981 -65.1985 -5.93543 5.23339 -1.67368 9.63611 -6.76359 -0.0 0.0 -0.0 12.6059 18.726 -25.4148 -26.4773 0.743577 -66.415 0.3326 9.35622 -0.0272169 -24.4379 1.46778 -2.7345 2.47022 -26.4603 -25.0423 0.0 0.0 0.0 -20.2322 -1.02864 15.7321 -3.80244 0.137775 0.567186 24.9499 17.3464 -3.38331 -31.9246 0.0 0.0 -0.0 0.0 -0.0 23.6065 20.4355 -6.68446 -3.02742 -0.112757 -0.450875 12.2482 11.714 1.8313 -26.4111 0.0 0.0 0.0 0.0 0.0 
2602.55943218 717.278 -1515.98941627 -9.58232356402 64.2389701381 4.00271025799 2.9755 0.523694 1.95829 2.97755 0.398047 1.98763 2.99082 0.0773145 2.0256 2.98531 0.396186 1.988 0.542175 15.3566 -7.69459 1.91643 33.5443 -7.21388 -0.0 0.0 -0.0 -0.373548 22.4304 2.07919 -9.75453 -20.967 49.5399 3.97323 -63.0482 2.43771 -65.4033 -5.96135 5.23737 -1.19333 8.61405 -4.12736 -0.0 0.0 -0.0 12.4295 16.4243 -25.1282 -23.7759 2.8175 -66.6052 0.344713 9.69061 -0.029221 -24.8257 1.50014 -2.77222 2.49566 -27.5649 -25.431 0.0 0.0 0.0 -19.7006 -1.53872 15.5703 -5.56385 0.188765 0.832688 22.289 15.174 -3.04182 -32.5281 0.0 0.0 -0.0 0.0 -0.0 22.0432 19.9595 -6.27318 -1.64235 -0.064131 -0.243875 14.725 11.5084 2.17555 -22.0974 0.0 0.0 0.0 0.0 0.0 
2603.50165203 717.278 -1520.19658238 -9.18167145304 63.0373037814 3.55558266897 2.9755 0.523694 1.95829 2.97755 0.398047 1.98763 2.99082 0.0773145 2.0256 2.98531 0.396186 1.988 0.542175 15.3566 -7.69459 1.91643 33.5443 -7.21388 -0.0 0.0 -0.0 -0.373548 22.4304 2.07919 -9.75453 -20.967 49.5399 3.97323 -63.0482 2.43771 -65.4033 -5.96135 5.23737 -1.19333 8.61405 -4.12736 -0.0 0.0 -0.0 12.4295 16.4243 -25.1282 -23.7759 2.8175 -66.6052 0.344713 9.69061 -0.029221 -24.8257 1.50014 -2.77222 2.49566 -27.5649 -25.431 0.0 0.0 0.0 -19.7006 -1.53872 15.5703 -5.56385 0.188765 0.832688 22.289 15.174 -3.04182 -32.5281 0.0 0.0 -0.0 0.0 -0.0 22.0432 19.9595 -6.27318 -1.64235 -0.064131 -0.243875 14.725 11.5084 2.17555 -22.0974 0.0 0.0 0.0 0.0 0.0 
2589.15566631 716.415 -1525.99643969 -10.4410038162 63.4765171577 4.91209342638 3.16906 0.547961 1.79675 3.17075 0.432538 1.82796 3.18402 0.143064 1.87297 3.17939 0.437019 1.8269 -0.246544 15.5722 -6.98855 0.953781 33.4475 -6.14216 -0.0 0.0 -0.0 -0.59666 21.5684 1.65744 -13.113 -21.2938 50.3804 3.40715 -59.3397 1.94141 -64.594 -5.85898 5.22108 -0.982917 7.94404 -3.06331 -0.0 0.0 -0.0 12.4735 15.0547 -25.2825 -20.9831 4.75908 -66.9285 0.344832 9.69388 -0.0292409 -25.9334 1.59397 -2.87875 2.35784 -28.4514 -24.7606 0.0 0.0 0.0 -18.6927 -1.16639 14.6497 -9.28201 0.269461 1.39746 21.8256 15.19 -2.98508 -33.2136 0.0 0.0 -0.0 0.0 -0.0 20.2224 20.4302 -5.5788 0.0223571 0.000921098 0.00330725 15.53 11.4719 2.28567 -20.6335 0.0 0.0 0.0 0.0 0.0 
2572.89051203 719.39 -1522.36959708 -10.7851687247 64.9092120529 4.58059396511 3.20912 0.371091 2.04493 3.21142 0.240243 2.06438 3.21926 -0.0825005 2.07667 3.21333 0.246435 2.06365 -1.72063 16.1141 -6.1238 -0.76508 33.8997 -4.65348 -0.0 0.0 -0.0 -1.1317 21.1157 0.831173 -15.768 -21.7907 52.2867 2.66965 -52.8955 1.32818 -63.4468 -5.71426 5.19549 -0.840074 7.73785 -2.22754 -0.0 0.0 -0.0 12.7013 14.3424 -25.8292 -17.1593 7.06111 -66.7482 0.425075 11.8912 -0.0442696 -27.0948 1.69455 -2.9885 2.179 -28.2621 -23.6327 0.0 0.0 0.0 -14.9362 0.174314 13.129 -19.0807 0.305445 2.89865 24.0178 14.5278 -3.2458 -33.2518 0.0 0.0 -0.0 0.0 -0.0 18.4335 20.2162 -4.45355 0.98518 0.0418203 0.145394 16.2563 9.85688 2.36277 -23.6099 0.0 0.0 0.0 0.0 0.0 
2573.19180957 719.39 -1523.76251502 -10.6471829345 64.5651282018 4.42801621543 3.20912 0.371091 2.04493 3.21142 0.240243 2.06438 3.21926 -0.0825005 2.07667 3.21333 0.246435 2.06365 -1.72063 16.1141 -6.1238 -0.76508 33.8997 -4.65348 -0.0 0.0 -0.0 -1.1317 21.1157 0.831173 -15.768 -21.7907 52.2867 2.66965 -52.8955 1.32818 -63.4468 -5.71426 5.19549 -0.840074 7.73785 -2.22754 -0.0 0.0 -0.0 12.7013 14.3424 -25.8292 -17.1593 7.06111 -66.7482 0.425075 11.8912 -0.0442696 -27.0948 1.69455 -2.9885 2.179 -28.2621 -23.6327 0.0 0.0 0.0 -14.9362 0.174314 13.129 -19.0807 0.305445 2.89865 24.0178 14.5278 -3.2458 -33.2518 0.0 0.0 -0.0 0.0 -0.0 18.4335 20.2162 -4.45355 0.98518 0.0418203 0.145394 16.2563 9.85688 2.36277 -23.6099 0.0 0.0 0.0 0.0 0.0 
2573.88759899 719.39 -1526.8331416 -10.3556868487 63.8044206194 4.10421204121 3.20912 0.371091 2.04493 3.21142 0.240243 2.06438 3.21926 -0.0825005 2.07667 3.21333 0.246435 2.06365 -1.72063 16.1141 -6.1238 -0.76508 33.8997 -4.65348 -0.0 0.0 -0.0 -1.1317 21.1157 0.831173 -15.768 -21.7907 52.2867 2.66965 -52.8955 1.32818 -63.4468 -5.71426 5.19549 -0.840074 7.73785 -2.22754 -0.0 0.0 -0.0 12.7013 14.3424 -25.8292 -17.1593 7.06111 -66.7482 0.425075 11.8912 -0.0442696 -27.0948 1.69455 -2.9885 2.179 -28.2621 -23.6327 0.0 0.0 0.0 -14.9362 0.174314 13.129 -19.0807 0.305445 2.89865 24.0178 14.5278 -3.2458 -33.2518 0.0 0.0 -0.0 0.0 -0.0 18.4335 20.2162 -4.45355 0.98518 0.0418203 0.145394 16.2563 9.85688 2.36277 -23.6099 0.0 0.0 0.0 0.0 0.0 
2559.996708 720.466 -1524.52357464 -9.9528761526 65.8165002116 3.48443535787 3.20901 0.217292 2.16773 3.21163 0.0789467 2.17716 3.21366 -0.259656 2.16307 3.20714 0.0851356 2.17693 -5.19379 16.4613 -4.5529 -4.83265 33.7025 -1.77402 -0.0 0.0 -0.0 -1.36053 20.7744 0.451232 -18.8248 -21.9952 52.6723 2.37841 -49.6695 1.10085 -63.2903 -5.69456 5.19177 -0.649549 6.99565 -1.31191 -0.0 0.0 -0.0 12.7391 14.0513 -25.9242 -13.469 9.04016 -67.6475 0.492645 13.7147 -0.0592449 -28.0302 1.77718 -3.07541 2.3053 -28.2909 -24.4067 0.0 0.0 0.0 -10.5055 -0.152248 10.5588 -28.4235 0.101213 4.31626 21.422 15.1262 -2.93482 -34.6618 0.0 0.0 -0.0 0.0 -0.0 15.9603 20.5832 -3.21698 2.11336 0.0927785 0.310999 18.1179 11.9288 2.64136 -21.5696 0.0 0.0 0.0 0.0 0.0 
2545.15208529 720.369 -1520.23901319 -11.0286137352 68.5383096454 4.54882011069 3.23731 0.116577 2.28806 3.24022 -0.0292153 2.29084 3.23793 -0.38328 2.25876 3.23081 -0.0218389 2.29092 -6.43848 16.4856 -3.74456 -6.28985 33.2818 -0.526661 -0.0 0.0 -0.0 -1.34133 20.2492 0.400579 -20.7897 -22.7974 53.7364 1.95119 -44.0212 0.788816 -62.9564 -5.65254 5.18366 -0.453589 6.52628 -0.236479 -0.0 0.0 -0.0 12.8309 13.794 -26.1422 -10.2782 10.5172 -68.5014 0.595288 16.4303 -0.0859438 -28.1262 1.78574 -3.08425 2.27794 -27.8347 -24.1436 0.0 0.0 0.0 -7.54166 1.9475 9.35373 -35.2406 -0.192061 5.3206 19.2986 14.4254 -2.66457 -35.8968 0.0 0.0 -0.0 0.0 -0.0 15.0226 19.9953 -3.35378 2.72993 0.122007 0.401082 19.3456 11.7856 2.80075 -22.4033 0.0 0.0 0.0 0.0 0.0 
2546.90321554 720.369 -1529.01616405 -10.1503632959 66.5992262984 3.59881955681 3.23731 0.116577 2.28806 3.24022 -0.0292153 2.29084 3.23793 -0.38328 2.25876 3.23081 -0.0218389 2.29092 -6.43848 16.4856 -3.74456 -6.28985 33.2818 -0.526661 -0.0 0.0 -0.0 -1.34133 20.2492 0.400579 -20.7897 -22.7974 53.7364 1.95119 -44.0212 0.788816 -62.9564 -5.65254 5.18366 -0.453589 6.52628 -0.236479 -0.0 0.0 -0.0 12.8309 13.794 -26.1422 -10.2782 10.5172 -68.5014 0.595288 16.4303 -0.0859438 -28.1262 1.78574 -3.08425 2.27794 -27.8347 -24.1436 0.0 0.0 0.0 -7.54166 1.9475 9.35373 -35.2406 -0.192061 5.3206 19.2986 14.4254 -2.66457 -35.8968 0.0 0.0 -0.0 0.0 -0.0 15.0226 19.9953 -3.35378 2.72993 0.122007 0.401082 19.3456 11.7856 2.80075 -22.4033 0.0 0.0 0.0 0.0 0.0 
2533.8092686 725.168 -1524.19489107 -11.1494726626 68.4084755597 4.21962927169 3.21301 0.0932676 2.19192 3.21568 -0.0463649 2.19341 3.21288 -0.386091 2.15968 3.20637 -0.04025 2.19353 -7.98924 16.0927 -3.14251 -8.0662 32.2649 0.494056 -0.0 0.0 -0.0 -1.44129 20.4062 0.278314 -22.1738 -24.1416 55.8549 1.68782 -39.8956 0.612616 -63.0284 -5.6616 5.18543 -0.289715 6.52563 0.831837 -0.0 0.0 -0.0 12.9287 13.6406 -26.372 -7.23319 9.593 -68.3802 0.673142 18.4413 -0.109275 -28.0475 1.77872 -3.077 2.06987 -26.6256 -22.5997 0.0 0.0 0.0 -4.99359 6.21914 8.48904 -39.3252 -0.424393 5.90359 18.5493 12.4842 -2.55994 -36.6572 0.0 0.0 -0.0 0.0 -0.0 13.5335 19.5485 -2.07354 2.60361 0.115939 0.382652 19.9204 10.8728 2.86034 -24.3875 0.0 0.0 0.0 0.0 0.0 
